# xmcd CD database file
#
# Track frame offsets:
#	150
#	30294
#	61647
#	81695
#	110720
#	123850
#	155920
#	194230
#	217834
#	249997
#	277924
#
# Disc length: 3923 seconds
#
# Revision: 0
# Processed by: cddbd v1.5.2PL0 Copyright (c) Steve Scherf et al.
# Submitted via: CDex 1.51
#
DISCID=980f510b
DTITLE=Francesco Chebat - Imprinting
DYEAR=2007
DGENRE=Jazz
TTITLE0=Inside
TTITLE1=Song for my Princess
TTITLE2=Moody Man
TTITLE3=Una Notte di Pioggia
TTITLE4=Lirico
TTITLE5=Hyvinkaa
TTITLE6=Pg
TTITLE7=Nessuno Prima
TTITLE8=Colors
TTITLE9=Summer Ballad
TTITLE10=Senza via d'uscita
EXTD=YEAR: 2007
EXTT0=
EXTT1=
EXTT2=
EXTT3=
EXTT4=
EXTT5=
EXTT6=
EXTT7=
EXTT8=
EXTT9=
EXTT10=
PLAYORDER=
